<?xml version="1.0" encoding="UTF-8" standalone="no"?>
<!DOCTYPE svg PUBLIC "-//W3C//DTD SVG 1.1//EN"
 "http://www.w3.org/Graphics/SVG/1.1/DTD/svg11.dtd">
<!-- Generated by graphviz version 2.36.0 (20140111.2315)
 -->
<!-- Title: IControl Pages: 1 -->
<svg width="406pt" height="1218pt"
 viewBox="0.00 0.00 406.00 1218.00" xmlns="http://www.w3.org/2000/svg" xmlns:xlink="http://www.w3.org/1999/xlink">
<g id="graph0" class="graph" transform="scale(1 1) rotate(0) translate(4 1214)">
<title>IControl</title>
<polygon fill="white" stroke="none" points="-4,4 -4,-1214 402,-1214 402,4 -4,4"/>
<!-- Node1 -->
<g id="node1" class="node"><title>Node1</title>
<polygon fill="#bfbfbf" stroke="black" points="0.5,-601.5 0.5,-620.5 51.5,-620.5 51.5,-601.5 0.5,-601.5"/>
<text text-anchor="middle" x="26" y="-608.5" font-family="Helvetica,sans-Serif" font-size="10.00">IControl</text>
</g>
<!-- Node2 -->
<g id="node2" class="node"><title>Node2</title>
<g id="a_node2"><a xlink:href="class_g_f_x_label_control.html" target="_top" xlink:title="Control to display the graphics backend. ">
<polygon fill="white" stroke="black" points="112,-1190.5 112,-1209.5 204,-1209.5 204,-1190.5 112,-1190.5"/>
<text text-anchor="middle" x="158" y="-1197.5" font-family="Helvetica,sans-Serif" font-size="10.00">GFXLabelControl</text>
</a>
</g>
</g>
<!-- Node1&#45;&gt;Node2 -->
<g id="edge1" class="edge"><title>Node1&#45;&gt;Node2</title>
<path fill="none" stroke="midnightblue" d="M27.8128,-630.793C31.9129,-726.465 51.5769,-1138.14 88,-1181 94.1147,-1188.2 102.68,-1192.79 111.702,-1195.7"/>
<polygon fill="midnightblue" stroke="midnightblue" points="31.298,-630.365 27.3809,-620.521 24.3042,-630.659 31.298,-630.365"/>
</g>
<!-- Node3 -->
<g id="node3" class="node"><title>Node3</title>
<g id="a_node3"><a xlink:href="class_i_bitmap_control.html" target="_top" xlink:title="A basic control to draw a bitmap, or one frame of a stacked bitmap depending on the current value...">
<polygon fill="white" stroke="black" points="117,-1152.5 117,-1171.5 199,-1171.5 199,-1152.5 117,-1152.5"/>
<text text-anchor="middle" x="158" y="-1159.5" font-family="Helvetica,sans-Serif" font-size="10.00">IBitmapControl</text>
</a>
</g>
</g>
<!-- Node1&#45;&gt;Node3 -->
<g id="edge2" class="edge"><title>Node1&#45;&gt;Node3</title>
<path fill="none" stroke="midnightblue" d="M27.978,-630.911C32.664,-722.823 54.0055,-1103.3 88,-1143 95.2733,-1151.49 105.961,-1156.36 116.763,-1159.11"/>
<polygon fill="midnightblue" stroke="midnightblue" points="31.465,-630.563 27.4684,-620.751 24.4738,-630.914 31.465,-630.563"/>
</g>
<!-- Node5 -->
<g id="node5" class="node"><title>Node5</title>
<g id="a_node5"><a xlink:href="class_i_button_control_base.html" target="_top" xlink:title="A base class for buttons/momentary switches &#45; cannot be linked to parameters. ">
<polygon fill="white" stroke="black" points="107,-1114.5 107,-1133.5 209,-1133.5 209,-1114.5 107,-1114.5"/>
<text text-anchor="middle" x="158" y="-1121.5" font-family="Helvetica,sans-Serif" font-size="10.00">IButtonControlBase</text>
</a>
</g>
</g>
<!-- Node1&#45;&gt;Node5 -->
<g id="edge4" class="edge"><title>Node1&#45;&gt;Node5</title>
<path fill="none" stroke="midnightblue" d="M26.6249,-630.923C25.4714,-714.064 25.2798,-1032.39 88,-1105 93.0359,-1110.83 99.6797,-1114.95 106.857,-1117.85"/>
<polygon fill="midnightblue" stroke="midnightblue" points="30.1263,-630.857 26.7876,-620.802 23.1272,-630.745 30.1263,-630.857"/>
</g>
<!-- Node8 -->
<g id="node8" class="node"><title>Node8</title>
<g id="a_node8"><a xlink:href="class_i_color_picker_control.html" target="_top" xlink:title="A control for choosing a color. ">
<polygon fill="white" stroke="black" points="107,-1076.5 107,-1095.5 209,-1095.5 209,-1076.5 107,-1076.5"/>
<text text-anchor="middle" x="158" y="-1083.5" font-family="Helvetica,sans-Serif" font-size="10.00">IColorPickerControl</text>
</a>
</g>
</g>
<!-- Node1&#45;&gt;Node8 -->
<g id="edge7" class="edge"><title>Node1&#45;&gt;Node8</title>
<path fill="none" stroke="midnightblue" d="M26.8538,-630.887C26.6818,-709.908 30.0596,-1000.61 88,-1067 93.0653,-1072.8 99.7243,-1076.91 106.908,-1079.8"/>
<polygon fill="midnightblue" stroke="midnightblue" points="30.354,-630.832 26.8988,-620.816 23.354,-630.8 30.354,-630.832"/>
</g>
<!-- Node9 -->
<g id="node9" class="node"><title>Node9</title>
<g id="a_node9"><a xlink:href="class_i_corner_resizer_control.html" target="_top" xlink:title="A control for resizing the plug&#45;in window by clicking and dragging in the bottom right&#45;hand corner Th...">
<polygon fill="white" stroke="black" points="101,-1038.5 101,-1057.5 215,-1057.5 215,-1038.5 101,-1038.5"/>
<text text-anchor="middle" x="158" y="-1045.5" font-family="Helvetica,sans-Serif" font-size="10.00">ICornerResizerControl</text>
</a>
</g>
</g>
<!-- Node1&#45;&gt;Node9 -->
<g id="edge8" class="edge"><title>Node1&#45;&gt;Node9</title>
<path fill="none" stroke="midnightblue" d="M27.1252,-631.11C28.004,-706.191 34.8867,-968.868 88,-1029 91.6192,-1033.1 96.0327,-1036.35 100.86,-1038.92"/>
<polygon fill="midnightblue" stroke="midnightblue" points="30.6217,-630.698 27.0296,-620.73 23.622,-630.762 30.6217,-630.698"/>
</g>
<!-- Node10 -->
<g id="node10" class="node"><title>Node10</title>
<g id="a_node10"><a xlink:href="class_i_dir_browse_control_base.html" target="_top" xlink:title="An abstract IControl base class that you can inherit from in order to make a control that pops up a m...">
<polygon fill="white" stroke="black" points="98.5,-1000.5 98.5,-1019.5 217.5,-1019.5 217.5,-1000.5 98.5,-1000.5"/>
<text text-anchor="middle" x="158" y="-1007.5" font-family="Helvetica,sans-Serif" font-size="10.00">IDirBrowseControlBase</text>
</a>
</g>
</g>
<!-- Node1&#45;&gt;Node10 -->
<g id="edge9" class="edge"><title>Node1&#45;&gt;Node10</title>
<path fill="none" stroke="midnightblue" d="M27.4365,-630.626C29.3923,-700.648 39.5318,-936.909 88,-991 91.3996,-994.794 95.4801,-997.86 99.9362,-1000.33"/>
<polygon fill="midnightblue" stroke="midnightblue" points="30.9332,-630.445 27.1808,-620.537 23.9354,-630.623 30.9332,-630.445"/>
</g>
<!-- Node12 -->
<g id="node12" class="node"><title>Node12</title>
<g id="a_node12"><a xlink:href="class_i_f_p_s_display_control.html" target="_top" xlink:title="Performance display meter, based on code from NanoVG This is a special control that lives outside the...">
<polygon fill="white" stroke="black" points="106,-962.5 106,-981.5 210,-981.5 210,-962.5 106,-962.5"/>
<text text-anchor="middle" x="158" y="-969.5" font-family="Helvetica,sans-Serif" font-size="10.00">IFPSDisplayControl</text>
</a>
</g>
</g>
<!-- Node1&#45;&gt;Node12 -->
<g id="edge11" class="edge"><title>Node1&#45;&gt;Node12</title>
<path fill="none" stroke="midnightblue" d="M27.8275,-630.742C30.9711,-696.262 44.2983,-905.071 88,-953 92.8555,-958.325 99.0527,-962.213 105.734,-965.041"/>
<polygon fill="midnightblue" stroke="midnightblue" points="31.3151,-630.387 27.367,-620.556 24.3223,-630.703 31.3151,-630.387"/>
</g>
<!-- Node13 -->
<g id="node13" class="node"><title>Node13</title>
<g id="a_node13"><a xlink:href="class_i_graphics_live_edit.html" target="_top" xlink:title="A control to enable live modification of control layout in an IGraphics context in debug builds This ...">
<polygon fill="white" stroke="black" points="111,-924.5 111,-943.5 205,-943.5 205,-924.5 111,-924.5"/>
<text text-anchor="middle" x="158" y="-931.5" font-family="Helvetica,sans-Serif" font-size="10.00">IGraphicsLiveEdit</text>
</a>
</g>
</g>
<!-- Node1&#45;&gt;Node13 -->
<g id="edge12" class="edge"><title>Node1&#45;&gt;Node13</title>
<path fill="none" stroke="midnightblue" d="M28.3196,-630.882C32.7474,-691.628 49.0454,-873.19 88,-915 94.0984,-921.545 102.224,-925.912 110.755,-928.807"/>
<polygon fill="midnightblue" stroke="midnightblue" points="31.7976,-630.444 27.6085,-620.712 24.8146,-630.932 31.7976,-630.444"/>
</g>
<!-- Node14 -->
<g id="node14" class="node"><title>Node14</title>
<g id="a_node14"><a xlink:href="class_i_knob_control_base.html" target="_top" xlink:title="A base class for knob/dial controls, to handle mouse action and ballistics. ">
<polygon fill="white" stroke="black" points="110,-886.5 110,-905.5 206,-905.5 206,-886.5 110,-886.5"/>
<text text-anchor="middle" x="158" y="-893.5" font-family="Helvetica,sans-Serif" font-size="10.00">IKnobControlBase</text>
</a>
</g>
</g>
<!-- Node1&#45;&gt;Node14 -->
<g id="edge13" class="edge"><title>Node1&#45;&gt;Node14</title>
<path fill="none" stroke="midnightblue" d="M28.9402,-630.89C34.7456,-686.391 53.7354,-841.219 88,-877 93.9296,-883.192 101.675,-887.426 109.828,-890.309"/>
<polygon fill="midnightblue" stroke="midnightblue" points="32.3912,-630.229 27.9007,-620.633 25.4269,-630.935 32.3912,-630.229"/>
</g>
<!-- Node27 -->
<g id="node27" class="node"><title>Node27</title>
<g id="a_node27"><a xlink:href="class_i_lambda_control.html" target="_top" xlink:title="A control that can be specialised with a lambda function, for quick experiments without making a cust...">
<polygon fill="white" stroke="black" points="115,-848.5 115,-867.5 201,-867.5 201,-848.5 115,-848.5"/>
<text text-anchor="middle" x="158" y="-855.5" font-family="Helvetica,sans-Serif" font-size="10.00">ILambdaControl</text>
</a>
</g>
</g>
<!-- Node1&#45;&gt;Node27 -->
<g id="edge26" class="edge"><title>Node1&#45;&gt;Node27</title>
<path fill="none" stroke="midnightblue" d="M26.1835,-631.137C25.5476,-675.247 30.4944,-781.074 88,-839 95.1781,-846.231 104.837,-850.778 114.651,-853.62"/>
<polygon fill="midnightblue" stroke="midnightblue" points="29.6893,-630.958 26.4542,-620.869 22.6918,-630.773 29.6893,-630.958"/>
</g>
<!-- Node28 -->
<g id="node28" class="node"><title>Node28</title>
<g id="a_node28"><a xlink:href="class_i_panel_control.html" target="_top" xlink:title="A basic control to fill a rectangle with a color or gradient. ">
<polygon fill="white" stroke="black" points="120,-810.5 120,-829.5 196,-829.5 196,-810.5 120,-810.5"/>
<text text-anchor="middle" x="158" y="-817.5" font-family="Helvetica,sans-Serif" font-size="10.00">IPanelControl</text>
</a>
</g>
</g>
<!-- Node1&#45;&gt;Node28 -->
<g id="edge27" class="edge"><title>Node1&#45;&gt;Node28</title>
<path fill="none" stroke="midnightblue" d="M27.4665,-630.887C29.4778,-669.41 39.5044,-754.498 88,-801 96.6094,-809.256 108.465,-813.991 119.921,-816.686"/>
<polygon fill="midnightblue" stroke="midnightblue" points="30.9495,-630.378 27.0659,-620.521 23.9547,-630.649 30.9495,-630.378"/>
</g>
<!-- Node29 -->
<g id="node29" class="node"><title>Node29</title>
<g id="a_node29"><a xlink:href="class_i_popup_menu_control.html" target="_top" xlink:title="A base control for a pop&#45;up menu/drop&#45;down list that stays within the bounds of the IGraphics context...">
<polygon fill="white" stroke="black" points="106.5,-772.5 106.5,-791.5 209.5,-791.5 209.5,-772.5 106.5,-772.5"/>
<text text-anchor="middle" x="158" y="-779.5" font-family="Helvetica,sans-Serif" font-size="10.00">IPopupMenuControl</text>
</a>
</g>
</g>
<!-- Node1&#45;&gt;Node29 -->
<g id="edge28" class="edge"><title>Node1&#45;&gt;Node29</title>
<path fill="none" stroke="midnightblue" d="M29.3349,-630.945C34.2153,-663.452 48.5379,-727.761 88,-763 93.2826,-767.717 99.6335,-771.276 106.315,-773.958"/>
<polygon fill="midnightblue" stroke="midnightblue" points="32.7817,-630.315 27.9767,-620.872 25.8445,-631.251 32.7817,-630.315"/>
</g>
<!-- Node30 -->
<g id="node30" class="node"><title>Node30</title>
<g id="a_node30"><a xlink:href="class_i_slider_control_base.html" target="_top" xlink:title="A base class for slider/fader controls, to handle mouse action and ballistics. ">
<polygon fill="white" stroke="red" points="109,-734.5 109,-753.5 207,-753.5 207,-734.5 109,-734.5"/>
<text text-anchor="middle" x="158" y="-741.5" font-family="Helvetica,sans-Serif" font-size="10.00">ISliderControlBase</text>
</a>
</g>
</g>
<!-- Node1&#45;&gt;Node30 -->
<g id="edge29" class="edge"><title>Node1&#45;&gt;Node30</title>
<path fill="none" stroke="midnightblue" d="M32.1219,-630.27C39.9015,-655.768 57.1564,-700.358 88,-725 94.1156,-729.886 101.4,-733.518 108.908,-736.217"/>
<polygon fill="midnightblue" stroke="midnightblue" points="35.477,-629.273 29.3559,-620.625 28.7482,-631.203 35.477,-629.273"/>
</g>
<!-- Node31 -->
<g id="node31" class="node"><title>Node31</title>
<g id="a_node31"><a xlink:href="class_i_s_v_g_control.html" target="_top" xlink:title="A basic control to draw an SVG image to the screen. ">
<polygon fill="white" stroke="black" points="122,-696.5 122,-715.5 194,-715.5 194,-696.5 122,-696.5"/>
<text text-anchor="middle" x="158" y="-703.5" font-family="Helvetica,sans-Serif" font-size="10.00">ISVGControl</text>
</a>
</g>
</g>
<!-- Node1&#45;&gt;Node31 -->
<g id="edge30" class="edge"><title>Node1&#45;&gt;Node31</title>
<path fill="none" stroke="midnightblue" d="M37.0292,-629.223C47.5198,-646.605 65.5747,-672.257 88,-687 98.0708,-693.621 110.416,-697.952 121.867,-700.778"/>
<polygon fill="midnightblue" stroke="midnightblue" points="40.0403,-627.439 31.9996,-620.54 33.9829,-630.947 40.0403,-627.439"/>
</g>
<!-- Node32 -->
<g id="node32" class="node"><title>Node32</title>
<g id="a_node32"><a xlink:href="class_i_switch_control_base.html" target="_top" xlink:title="A base class for switch controls. ">
<polygon fill="white" stroke="red" points="106,-658.5 106,-677.5 210,-677.5 210,-658.5 106,-658.5"/>
<text text-anchor="middle" x="158" y="-665.5" font-family="Helvetica,sans-Serif" font-size="10.00">ISwitchControlBase</text>
</a>
</g>
</g>
<!-- Node1&#45;&gt;Node32 -->
<g id="edge31" class="edge"><title>Node1&#45;&gt;Node32</title>
<path fill="none" stroke="midnightblue" d="M48.3182,-626.405C59.6651,-634.046 74.1127,-642.916 88,-649 96.4218,-652.69 105.74,-655.834 114.733,-658.439"/>
<polygon fill="midnightblue" stroke="midnightblue" points="50.168,-623.429 39.9528,-620.618 46.1855,-629.186 50.168,-623.429"/>
</g>
<!-- Node33 -->
<g id="node33" class="node"><title>Node33</title>
<g id="a_node33"><a xlink:href="class_i_text_control.html" target="_top" xlink:title="A basic control to display some text. ">
<polygon fill="white" stroke="red" points="122.5,-620.5 122.5,-639.5 193.5,-639.5 193.5,-620.5 122.5,-620.5"/>
<text text-anchor="middle" x="158" y="-627.5" font-family="Helvetica,sans-Serif" font-size="10.00">ITextControl</text>
</a>
</g>
</g>
<!-- Node1&#45;&gt;Node33 -->
<g id="edge32" class="edge"><title>Node1&#45;&gt;Node33</title>
<path fill="none" stroke="midnightblue" d="M61.8939,-616.1C80.5211,-618.822 103.382,-622.164 122.022,-624.888"/>
<polygon fill="midnightblue" stroke="midnightblue" points="62.1591,-612.602 51.758,-614.618 61.1467,-619.528 62.1591,-612.602"/>
</g>
<!-- Node34 -->
<g id="node34" class="node"><title>Node34</title>
<g id="a_node34"><a xlink:href="class_i_text_entry_control.html" target="_top" xlink:title="A Text entry widget drawn by IGraphics. ">
<polygon fill="white" stroke="black" points="111,-582.5 111,-601.5 205,-601.5 205,-582.5 111,-582.5"/>
<text text-anchor="middle" x="158" y="-589.5" font-family="Helvetica,sans-Serif" font-size="10.00">ITextEntryControl</text>
</a>
</g>
</g>
<!-- Node1&#45;&gt;Node34 -->
<g id="edge33" class="edge"><title>Node1&#45;&gt;Node34</title>
<path fill="none" stroke="midnightblue" d="M61.6804,-605.931C76.7381,-603.731 94.5934,-601.121 110.756,-598.759"/>
<polygon fill="midnightblue" stroke="midnightblue" points="61.1467,-602.472 51.758,-607.382 62.1591,-609.398 61.1467,-602.472"/>
</g>
<!-- Node35 -->
<g id="node35" class="node"><title>Node35</title>
<g id="a_node35"><a xlink:href="class_i_v_keyboard_control.html" target="_top" xlink:title="Vectorial keyboard control. ">
<polygon fill="white" stroke="black" points="108.5,-544.5 108.5,-563.5 207.5,-563.5 207.5,-544.5 108.5,-544.5"/>
<text text-anchor="middle" x="158" y="-551.5" font-family="Helvetica,sans-Serif" font-size="10.00">IVKeyboardControl</text>
</a>
</g>
</g>
<!-- Node1&#45;&gt;Node35 -->
<g id="edge34" class="edge"><title>Node1&#45;&gt;Node35</title>
<path fill="none" stroke="midnightblue" d="M48.3182,-595.595C59.6651,-587.954 74.1127,-579.084 88,-573 96.4218,-569.31 105.74,-566.166 114.733,-563.561"/>
<polygon fill="midnightblue" stroke="midnightblue" points="46.1855,-592.814 39.9528,-601.382 50.168,-598.571 46.1855,-592.814"/>
</g>
<!-- Node36 -->
<g id="node36" class="node"><title>Node36</title>
<g id="a_node36"><a xlink:href="class_i_v_scope_control.html" target="_top" xlink:title="Vectorial multichannel capable oscilloscope control. ">
<polygon fill="white" stroke="black" points="88,-495 88,-525 228,-525 228,-495 88,-495"/>
<text text-anchor="start" x="96" y="-513" font-family="Helvetica,sans-Serif" font-size="10.00">IVScopeControl&lt; MAXNC,</text>
<text text-anchor="middle" x="158" y="-502" font-family="Helvetica,sans-Serif" font-size="10.00"> MAXBUF, QUEUE_SIZE &gt;</text>
</a>
</g>
</g>
<!-- Node1&#45;&gt;Node36 -->
<g id="edge35" class="edge"><title>Node1&#45;&gt;Node36</title>
<path fill="none" stroke="midnightblue" d="M37.7597,-592.405C48.505,-575.322 66.4907,-550.389 88,-535 93.2847,-531.219 99.2023,-527.952 105.291,-525.145"/>
<polygon fill="midnightblue" stroke="midnightblue" points="34.4838,-591.058 32.2978,-601.425 40.4715,-594.684 34.4838,-591.058"/>
</g>
<!-- Node37 -->
<g id="node37" class="node"><title>Node37</title>
<g id="a_node37"><a xlink:href="class_i_v_track_control_base.html" target="_top" xlink:title="A base class for mult&#45;strip/track controls, such as multi&#45;sliders, meters. ">
<polygon fill="white" stroke="red" points="105.5,-456.5 105.5,-475.5 210.5,-475.5 210.5,-456.5 105.5,-456.5"/>
<text text-anchor="middle" x="158" y="-463.5" font-family="Helvetica,sans-Serif" font-size="10.00">IVTrackControlBase</text>
</a>
</g>
</g>
<!-- Node1&#45;&gt;Node37 -->
<g id="edge36" class="edge"><title>Node1&#45;&gt;Node37</title>
<path fill="none" stroke="midnightblue" d="M31.3281,-591.16C38.3886,-563.528 55.0329,-513.737 88,-486 93.1536,-481.664 99.2031,-478.267 105.541,-475.607"/>
<polygon fill="midnightblue" stroke="midnightblue" points="27.8483,-590.665 28.938,-601.203 34.6581,-592.285 27.8483,-590.665"/>
</g>
<!-- Node38 -->
<g id="node38" class="node"><title>Node38</title>
<g id="a_node38"><a xlink:href="class_test_animation_control.html" target="_top" xlink:title="Control to test animation. ">
<polygon fill="white" stroke="black" points="102.5,-418.5 102.5,-437.5 213.5,-437.5 213.5,-418.5 102.5,-418.5"/>
<text text-anchor="middle" x="158" y="-425.5" font-family="Helvetica,sans-Serif" font-size="10.00">TestAnimationControl</text>
</a>
</g>
</g>
<!-- Node1&#45;&gt;Node38 -->
<g id="edge37" class="edge"><title>Node1&#45;&gt;Node38</title>
<path fill="none" stroke="midnightblue" d="M28.6695,-590.97C32.6383,-556.446 45.7407,-485.719 88,-447 92.2142,-443.139 97.1417,-440.052 102.39,-437.586"/>
<polygon fill="midnightblue" stroke="midnightblue" points="25.1598,-590.893 27.6447,-601.192 32.1249,-591.591 25.1598,-590.893"/>
</g>
<!-- Node39 -->
<g id="node39" class="node"><title>Node39</title>
<g id="a_node39"><a xlink:href="class_test_color_control.html" target="_top" xlink:title="Control to colors. ">
<polygon fill="white" stroke="black" points="112.5,-380.5 112.5,-399.5 203.5,-399.5 203.5,-380.5 112.5,-380.5"/>
<text text-anchor="middle" x="158" y="-387.5" font-family="Helvetica,sans-Serif" font-size="10.00">TestColorControl</text>
</a>
</g>
</g>
<!-- Node1&#45;&gt;Node39 -->
<g id="edge38" class="edge"><title>Node1&#45;&gt;Node39</title>
<path fill="none" stroke="midnightblue" d="M27.0109,-591.24C28.1443,-551.011 36.5814,-459.171 88,-409 94.6698,-402.492 103.354,-398.167 112.299,-395.303"/>
<polygon fill="midnightblue" stroke="midnightblue" points="23.5098,-591.295 26.8549,-601.348 30.5089,-591.404 23.5098,-591.295"/>
</g>
<!-- Node40 -->
<g id="node40" class="node"><title>Node40</title>
<g id="a_node40"><a xlink:href="class_test_cursor_control.html" target="_top" xlink:title="Control to test changing the platform cursor. ">
<polygon fill="white" stroke="black" points="109.5,-342.5 109.5,-361.5 206.5,-361.5 206.5,-342.5 109.5,-342.5"/>
<text text-anchor="middle" x="158" y="-349.5" font-family="Helvetica,sans-Serif" font-size="10.00">TestCursorControl</text>
</a>
</g>
</g>
<!-- Node1&#45;&gt;Node40 -->
<g id="edge39" class="edge"><title>Node1&#45;&gt;Node40</title>
<path fill="none" stroke="midnightblue" d="M29.4853,-591.024C36.3137,-539.274 56.9413,-402.68 88,-371 93.8279,-365.055 101.332,-360.921 109.235,-358.057"/>
<polygon fill="midnightblue" stroke="midnightblue" points="25.9773,-590.863 28.1743,-601.228 32.9202,-591.755 25.9773,-590.863"/>
</g>
<!-- Node41 -->
<g id="node41" class="node"><title>Node41</title>
<g id="a_node41"><a xlink:href="class_test_draw_context_control.html" target="_top" xlink:title="Control to test obtaining a drawing API (NanoVG, LICE, Cairo, AGG etc) context and using that API wit...">
<polygon fill="white" stroke="black" points="95.5,-304.5 95.5,-323.5 220.5,-323.5 220.5,-304.5 95.5,-304.5"/>
<text text-anchor="middle" x="158" y="-311.5" font-family="Helvetica,sans-Serif" font-size="10.00">TestDrawContextControl</text>
</a>
</g>
</g>
<!-- Node1&#45;&gt;Node41 -->
<g id="edge40" class="edge"><title>Node1&#45;&gt;Node41</title>
<path fill="none" stroke="midnightblue" d="M28.7398,-590.969C34.1148,-533.644 52.2876,-370.646 88,-333 91.6771,-329.124 96.0656,-326.014 100.823,-323.522"/>
<polygon fill="midnightblue" stroke="midnightblue" points="25.2262,-590.961 27.8096,-601.236 32.1977,-591.593 25.2262,-590.961"/>
</g>
<!-- Node42 -->
<g id="node42" class="node"><title>Node42</title>
<g id="a_node42"><a xlink:href="class_test_drop_shadow_control.html" target="_top" xlink:title="Control to test layer drop shadows. ">
<polygon fill="white" stroke="black" points="96,-266.5 96,-285.5 220,-285.5 220,-266.5 96,-266.5"/>
<text text-anchor="middle" x="158" y="-273.5" font-family="Helvetica,sans-Serif" font-size="10.00">TestDropShadowControl</text>
</a>
</g>
</g>
<!-- Node1&#45;&gt;Node42 -->
<g id="edge41" class="edge"><title>Node1&#45;&gt;Node42</title>
<path fill="none" stroke="midnightblue" d="M28.1522,-591.147C32.1649,-528.842 47.5526,-338.733 88,-295 91.5433,-291.169 95.7813,-288.083 100.39,-285.602"/>
<polygon fill="midnightblue" stroke="midnightblue" points="24.6526,-591.033 27.5318,-601.229 31.6394,-591.463 24.6526,-591.033"/>
</g>
<!-- Node43 -->
<g id="node43" class="node"><title>Node43</title>
<g id="a_node43"><a xlink:href="class_test_font_control.html" target="_top" xlink:title="Control to test drawing fonts. ">
<polygon fill="white" stroke="black" points="114.5,-228.5 114.5,-247.5 201.5,-247.5 201.5,-228.5 114.5,-228.5"/>
<text text-anchor="middle" x="158" y="-235.5" font-family="Helvetica,sans-Serif" font-size="10.00">TestFontControl</text>
</a>
</g>
</g>
<!-- Node1&#45;&gt;Node43 -->
<g id="edge42" class="edge"><title>Node1&#45;&gt;Node43</title>
<path fill="none" stroke="midnightblue" d="M27.6892,-591.432C30.437,-524.62 42.7647,-306.904 88,-257 94.8426,-249.451 104.381,-244.789 114.186,-241.939"/>
<polygon fill="midnightblue" stroke="midnightblue" points="24.1908,-591.323 27.3039,-601.45 31.1857,-591.592 24.1908,-591.323"/>
</g>
<!-- Node44 -->
<g id="node44" class="node"><title>Node44</title>
<g id="a_node44"><a xlink:href="class_test_image_control.html" target="_top" xlink:title="Control to test drawing bitmaps. ">
<polygon fill="white" stroke="black" points="110.5,-190.5 110.5,-209.5 205.5,-209.5 205.5,-190.5 110.5,-190.5"/>
<text text-anchor="middle" x="158" y="-197.5" font-family="Helvetica,sans-Serif" font-size="10.00">TestImageControl</text>
</a>
</g>
</g>
<!-- Node1&#45;&gt;Node44 -->
<g id="edge43" class="edge"><title>Node1&#45;&gt;Node44</title>
<path fill="none" stroke="midnightblue" d="M27.3438,-590.76C28.9825,-518.544 38.1729,-274.876 88,-219 93.8713,-212.416 101.793,-208.022 110.177,-205.111"/>
<polygon fill="midnightblue" stroke="midnightblue" points="23.8365,-591.096 27.1347,-601.164 30.8351,-591.237 23.8365,-591.096"/>
</g>
<!-- Node45 -->
<g id="node45" class="node"><title>Node45</title>
<g id="a_node45"><a xlink:href="class_test_keyboard_control.html" target="_top" xlink:title="Control to test keyboard input. ">
<polygon fill="white" stroke="black" points="103.5,-152.5 103.5,-171.5 212.5,-171.5 212.5,-152.5 103.5,-152.5"/>
<text text-anchor="middle" x="158" y="-159.5" font-family="Helvetica,sans-Serif" font-size="10.00">TestKeyboardControl</text>
</a>
</g>
</g>
<!-- Node1&#45;&gt;Node45 -->
<g id="edge44" class="edge"><title>Node1&#45;&gt;Node45</title>
<path fill="none" stroke="midnightblue" d="M27.0315,-591.287C27.5566,-515.388 33.2861,-243.193 88,-181 92.1855,-176.242 97.4419,-172.626 103.176,-169.886"/>
<polygon fill="midnightblue" stroke="midnightblue" points="23.5313,-591.353 26.9859,-601.369 30.5312,-591.385 23.5313,-591.353"/>
</g>
<!-- Node46 -->
<g id="node46" class="node"><title>Node46</title>
<g id="a_node46"><a xlink:href="class_test_shadow_gradient_control.html" target="_top" xlink:title="Control to test drawing shadows with gradients. ">
<polygon fill="white" stroke="black" points="88,-114.5 88,-133.5 228,-133.5 228,-114.5 88,-114.5"/>
<text text-anchor="middle" x="158" y="-121.5" font-family="Helvetica,sans-Serif" font-size="10.00">TestShadowGradientControl</text>
</a>
</g>
</g>
<!-- Node1&#45;&gt;Node46 -->
<g id="edge45" class="edge"><title>Node1&#45;&gt;Node46</title>
<path fill="none" stroke="midnightblue" d="M26.7777,-591.116C26.2897,-510.798 28.5481,-211.355 88,-143 91.3432,-139.156 95.3853,-136.056 99.8168,-133.561"/>
<polygon fill="midnightblue" stroke="midnightblue" points="23.2795,-591.352 26.8632,-601.322 30.2793,-591.293 23.2795,-591.352"/>
</g>
<!-- Node47 -->
<g id="node47" class="node"><title>Node47</title>
<g id="a_node47"><a xlink:href="class_test_size_control.html" target="_top" xlink:title="Control to display the size of a region. ">
<polygon fill="white" stroke="black" points="114.5,-76.5 114.5,-95.5 201.5,-95.5 201.5,-76.5 114.5,-76.5"/>
<text text-anchor="middle" x="158" y="-83.5" font-family="Helvetica,sans-Serif" font-size="10.00">TestSizeControl</text>
</a>
</g>
</g>
<!-- Node1&#45;&gt;Node47 -->
<g id="edge46" class="edge"><title>Node1&#45;&gt;Node47</title>
<path fill="none" stroke="midnightblue" d="M26.5607,-591.143C25.1073,-506.853 23.7483,-179.596 88,-105 94.7303,-97.1861 104.35,-92.4418 114.277,-89.5981"/>
<polygon fill="midnightblue" stroke="midnightblue" points="23.0658,-591.442 26.7596,-601.372 30.0645,-591.306 23.0658,-591.442"/>
</g>
<!-- Node48 -->
<g id="node48" class="node"><title>Node48</title>
<g id="a_node48"><a xlink:href="class_test_s_v_g_control.html" target="_top" xlink:title="Control to test drawing SVGs. ">
<polygon fill="white" stroke="black" points="113.5,-38.5 113.5,-57.5 202.5,-57.5 202.5,-38.5 113.5,-38.5"/>
<text text-anchor="middle" x="158" y="-45.5" font-family="Helvetica,sans-Serif" font-size="10.00">TestSVGControl</text>
</a>
</g>
</g>
<!-- Node1&#45;&gt;Node48 -->
<g id="edge47" class="edge"><title>Node1&#45;&gt;Node48</title>
<path fill="none" stroke="midnightblue" d="M27.9178,-591.238C32.4036,-498.323 53.2252,-107.714 88,-67 94.4557,-59.4417 103.615,-54.7518 113.157,-51.8758"/>
<polygon fill="midnightblue" stroke="midnightblue" points="24.41,-591.321 27.432,-601.476 31.4022,-591.653 24.41,-591.321"/>
</g>
<!-- Node49 -->
<g id="node49" class="node"><title>Node49</title>
<g id="a_node49"><a xlink:href="class_test_text_control.html" target="_top" xlink:title="Control to test drawing text. ">
<polygon fill="white" stroke="black" points="114.5,-0.5 114.5,-19.5 201.5,-19.5 201.5,-0.5 114.5,-0.5"/>
<text text-anchor="middle" x="158" y="-7.5" font-family="Helvetica,sans-Serif" font-size="10.00">TestTextControl</text>
</a>
</g>
</g>
<!-- Node1&#45;&gt;Node49 -->
<g id="edge48" class="edge"><title>Node1&#45;&gt;Node49</title>
<path fill="none" stroke="midnightblue" d="M27.7716,-591.088C31.7079,-493.967 50.8287,-72.8403 88,-29 94.6694,-21.1341 104.267,-16.3715 114.193,-13.5267"/>
<polygon fill="midnightblue" stroke="midnightblue" points="24.2666,-591.148 27.3667,-601.279 31.2611,-591.426 24.2666,-591.148"/>
</g>
<!-- Node4 -->
<g id="node4" class="node"><title>Node4</title>
<g id="a_node4"><a xlink:href="class_i_b_switch_control.html" target="_top" xlink:title="A bitmap switch control. ">
<polygon fill="white" stroke="black" points="287,-1190.5 287,-1209.5 375,-1209.5 375,-1190.5 287,-1190.5"/>
<text text-anchor="middle" x="331" y="-1197.5" font-family="Helvetica,sans-Serif" font-size="10.00">IBSwitchControl</text>
</a>
</g>
</g>
<!-- Node3&#45;&gt;Node4 -->
<g id="edge3" class="edge"><title>Node3&#45;&gt;Node4</title>
<path fill="none" stroke="midnightblue" d="M209.034,-1173.12C233.822,-1178.63 263.444,-1185.21 287.17,-1190.48"/>
<polygon fill="midnightblue" stroke="midnightblue" points="209.613,-1169.66 199.092,-1170.91 208.094,-1176.5 209.613,-1169.66"/>
</g>
<!-- Node6 -->
<g id="node6" class="node"><title>Node6</title>
<g id="a_node6"><a xlink:href="class_i_b_button_control.html" target="_top" xlink:title="A bitmap button/momentary switch control. ">
<polygon fill="white" stroke="black" points="288,-1152.5 288,-1171.5 374,-1171.5 374,-1152.5 288,-1152.5"/>
<text text-anchor="middle" x="331" y="-1159.5" font-family="Helvetica,sans-Serif" font-size="10.00">IBButtonControl</text>
</a>
</g>
</g>
<!-- Node5&#45;&gt;Node6 -->
<g id="edge5" class="edge"><title>Node5&#45;&gt;Node6</title>
<path fill="none" stroke="midnightblue" d="M211.963,-1135.77C236.334,-1141.19 264.852,-1147.52 287.751,-1152.61"/>
<polygon fill="midnightblue" stroke="midnightblue" points="212.672,-1132.34 202.151,-1133.59 211.153,-1139.18 212.672,-1132.34"/>
</g>
<!-- Node7 -->
<g id="node7" class="node"><title>Node7</title>
<g id="a_node7"><a xlink:href="class_i_v_button_control.html" target="_top" xlink:title="A vector button/momentary switch control. ">
<polygon fill="white" stroke="black" points="288,-1114.5 288,-1133.5 374,-1133.5 374,-1114.5 288,-1114.5"/>
<text text-anchor="middle" x="331" y="-1121.5" font-family="Helvetica,sans-Serif" font-size="10.00">IVButtonControl</text>
</a>
</g>
</g>
<!-- Node5&#45;&gt;Node7 -->
<g id="edge6" class="edge"><title>Node5&#45;&gt;Node7</title>
<path fill="none" stroke="midnightblue" d="M219.541,-1124C242.1,-1124 267.199,-1124 287.765,-1124"/>
<polygon fill="midnightblue" stroke="midnightblue" points="219.381,-1120.5 209.381,-1124 219.381,-1127.5 219.381,-1120.5"/>
</g>
<!-- Node11 -->
<g id="node11" class="node"><title>Node11</title>
<g id="a_node11"><a xlink:href="class_test_dir_browse_control.html" target="_top" xlink:title="Control to test IDirBrowseControlBase. ">
<polygon fill="white" stroke="black" points="274.5,-1076.5 274.5,-1095.5 387.5,-1095.5 387.5,-1076.5 274.5,-1076.5"/>
<text text-anchor="middle" x="331" y="-1083.5" font-family="Helvetica,sans-Serif" font-size="10.00">TestDirBrowseControl</text>
</a>
</g>
</g>
<!-- Node10&#45;&gt;Node11 -->
<g id="edge10" class="edge"><title>Node10&#45;&gt;Node11</title>
<path fill="none" stroke="midnightblue" d="M216.588,-1023.22C220.558,-1024.92 224.404,-1026.84 228,-1029 247.947,-1040.97 244.122,-1054.91 264,-1067 270.316,-1070.84 277.445,-1073.94 284.621,-1076.42"/>
<polygon fill="midnightblue" stroke="midnightblue" points="217.756,-1019.92 207.165,-1019.61 215.254,-1026.45 217.756,-1019.92"/>
</g>
<!-- Node15 -->
<g id="node15" class="node"><title>Node15</title>
<g id="a_node15"><a xlink:href="class_i_b_knob_control.html" target="_top" xlink:title="A bitmap knob/dial control that draws a frame from a stacked bitmap. ">
<polygon fill="white" stroke="red" points="291,-1038.5 291,-1057.5 371,-1057.5 371,-1038.5 291,-1038.5"/>
<text text-anchor="middle" x="331" y="-1045.5" font-family="Helvetica,sans-Serif" font-size="10.00">IBKnobControl</text>
</a>
</g>
</g>
<!-- Node14&#45;&gt;Node15 -->
<g id="edge14" class="edge"><title>Node14&#45;&gt;Node15</title>
<path fill="none" stroke="midnightblue" d="M215.348,-906.139C219.977,-908.514 224.292,-911.428 228,-915 266.263,-951.866 225.952,-991.913 264,-1029 271.258,-1036.07 280.972,-1040.55 290.711,-1043.36"/>
<polygon fill="midnightblue" stroke="midnightblue" points="216.708,-902.914 206.137,-902.206 213.959,-909.352 216.708,-902.914"/>
</g>
<!-- Node16 -->
<g id="node16" class="node"><title>Node16</title>
<g id="a_node16"><a xlink:href="class_i_s_v_g_knob.html" target="_top" xlink:title="A vector knob/dial control which rotates an SVG image. ">
<polygon fill="white" stroke="black" points="299.5,-1000.5 299.5,-1019.5 362.5,-1019.5 362.5,-1000.5 299.5,-1000.5"/>
<text text-anchor="middle" x="331" y="-1007.5" font-family="Helvetica,sans-Serif" font-size="10.00">ISVGKnob</text>
</a>
</g>
</g>
<!-- Node14&#45;&gt;Node16 -->
<g id="edge15" class="edge"><title>Node14&#45;&gt;Node16</title>
<path fill="none" stroke="midnightblue" d="M215.621,-907.062C220.068,-909.251 224.271,-911.869 228,-915 256.621,-939.037 235.519,-966.798 264,-991 273.813,-999.339 287.093,-1004.02 299.168,-1006.65"/>
<polygon fill="midnightblue" stroke="midnightblue" points="216.806,-903.764 206.229,-903.147 214.112,-910.225 216.806,-903.764"/>
</g>
<!-- Node17 -->
<g id="node17" class="node"><title>Node17</title>
<g id="a_node17"><a xlink:href="class_i_v_knob_control.html" target="_top" xlink:title="A vector knob control drawn using graphics primitves. ">
<polygon fill="white" stroke="black" points="291,-962.5 291,-981.5 371,-981.5 371,-962.5 291,-962.5"/>
<text text-anchor="middle" x="331" y="-969.5" font-family="Helvetica,sans-Serif" font-size="10.00">IVKnobControl</text>
</a>
</g>
</g>
<!-- Node14&#45;&gt;Node17 -->
<g id="edge16" class="edge"><title>Node14&#45;&gt;Node17</title>
<path fill="none" stroke="midnightblue" d="M215.643,-908.816C219.947,-910.62 224.12,-912.671 228,-915 247.947,-926.972 244.122,-940.912 264,-953 272.15,-957.956 281.652,-961.67 290.864,-964.435"/>
<polygon fill="midnightblue" stroke="midnightblue" points="216.669,-905.463 206.076,-905.246 214.221,-912.021 216.669,-905.463"/>
</g>
<!-- Node18 -->
<g id="node18" class="node"><title>Node18</title>
<g id="a_node18"><a xlink:href="class_test_arc_control.html" target="_top" xlink:title="Control to test drawing arcs. ">
<polygon fill="white" stroke="black" points="289.5,-924.5 289.5,-943.5 372.5,-943.5 372.5,-924.5 289.5,-924.5"/>
<text text-anchor="middle" x="331" y="-931.5" font-family="Helvetica,sans-Serif" font-size="10.00">TestArcControl</text>
</a>
</g>
</g>
<!-- Node14&#45;&gt;Node18 -->
<g id="edge17" class="edge"><title>Node14&#45;&gt;Node18</title>
<path fill="none" stroke="midnightblue" d="M212.153,-907.812C237.006,-913.335 266.137,-919.808 289.218,-924.937"/>
<polygon fill="midnightblue" stroke="midnightblue" points="212.672,-904.342 202.151,-905.589 211.153,-911.175 212.672,-904.342"/>
</g>
<!-- Node19 -->
<g id="node19" class="node"><title>Node19</title>
<g id="a_node19"><a xlink:href="class_test_blend_control.html" target="_top" xlink:title="Control to test blend methods. ">
<polygon fill="white" stroke="black" points="285,-886.5 285,-905.5 377,-905.5 377,-886.5 285,-886.5"/>
<text text-anchor="middle" x="331" y="-893.5" font-family="Helvetica,sans-Serif" font-size="10.00">TestBlendControl</text>
</a>
</g>
</g>
<!-- Node14&#45;&gt;Node19 -->
<g id="edge18" class="edge"><title>Node14&#45;&gt;Node19</title>
<path fill="none" stroke="midnightblue" d="M216.202,-896C238.517,-896 263.731,-896 284.743,-896"/>
<polygon fill="midnightblue" stroke="midnightblue" points="216.179,-892.5 206.179,-896 216.179,-899.5 216.179,-892.5"/>
</g>
<!-- Node20 -->
<g id="node20" class="node"><title>Node20</title>
<g id="a_node20"><a xlink:href="class_test_gradient_control.html" target="_top" xlink:title="Control to test drawing gradients with path based drawing backends. ">
<polygon fill="white" stroke="black" points="279,-848.5 279,-867.5 383,-867.5 383,-848.5 279,-848.5"/>
<text text-anchor="middle" x="331" y="-855.5" font-family="Helvetica,sans-Serif" font-size="10.00">TestGradientControl</text>
</a>
</g>
</g>
<!-- Node14&#45;&gt;Node20 -->
<g id="edge19" class="edge"><title>Node14&#45;&gt;Node20</title>
<path fill="none" stroke="midnightblue" d="M212.209,-884.176C236.317,-878.818 264.44,-872.569 287.16,-867.52"/>
<polygon fill="midnightblue" stroke="midnightblue" points="211.153,-880.825 202.151,-886.411 212.672,-887.658 211.153,-880.825"/>
</g>
<!-- Node21 -->
<g id="node21" class="node"><title>Node21</title>
<g id="a_node21"><a xlink:href="class_test_layer_control.html" target="_top" xlink:title="Control to test IGraphics layers. ">
<polygon fill="white" stroke="black" points="285,-810.5 285,-829.5 377,-829.5 377,-810.5 285,-810.5"/>
<text text-anchor="middle" x="331" y="-817.5" font-family="Helvetica,sans-Serif" font-size="10.00">TestLayerControl</text>
</a>
</g>
</g>
<!-- Node14&#45;&gt;Node21 -->
<g id="edge20" class="edge"><title>Node14&#45;&gt;Node21</title>
<path fill="none" stroke="midnightblue" d="M215.643,-883.184C219.947,-881.38 224.12,-879.329 228,-877 247.947,-865.028 244.122,-851.088 264,-839 270.418,-835.097 277.675,-831.964 284.968,-829.459"/>
<polygon fill="midnightblue" stroke="midnightblue" points="214.221,-879.979 206.076,-886.754 216.669,-886.537 214.221,-879.979"/>
</g>
<!-- Node22 -->
<g id="node22" class="node"><title>Node22</title>
<g id="a_node22"><a xlink:href="class_test_m_p_s_control.html" target="_top" xlink:title="Control to test IGraphicsNanoVG with Metal Performance Shaders. ">
<polygon fill="white" stroke="black" points="286.5,-772.5 286.5,-791.5 375.5,-791.5 375.5,-772.5 286.5,-772.5"/>
<text text-anchor="middle" x="331" y="-779.5" font-family="Helvetica,sans-Serif" font-size="10.00">TestMPSControl</text>
</a>
</g>
</g>
<!-- Node14&#45;&gt;Node22 -->
<g id="edge21" class="edge"><title>Node14&#45;&gt;Node22</title>
<path fill="none" stroke="midnightblue" d="M215.621,-884.938C220.068,-882.749 224.271,-880.131 228,-877 256.621,-852.963 235.519,-825.202 264,-801 270.36,-795.595 278.177,-791.726 286.178,-788.956"/>
<polygon fill="midnightblue" stroke="midnightblue" points="214.112,-881.775 206.229,-888.853 216.806,-888.236 214.112,-881.775"/>
</g>
<!-- Node23 -->
<g id="node23" class="node"><title>Node23</title>
<g id="a_node23"><a xlink:href="class_test_multi_path_control.html" target="_top" xlink:title="Control to test drawing paths in path&#45;based drawing backends. ">
<polygon fill="white" stroke="black" points="276.5,-734.5 276.5,-753.5 385.5,-753.5 385.5,-734.5 276.5,-734.5"/>
<text text-anchor="middle" x="331" y="-741.5" font-family="Helvetica,sans-Serif" font-size="10.00">TestMultiPathControl</text>
</a>
</g>
</g>
<!-- Node14&#45;&gt;Node23 -->
<g id="edge22" class="edge"><title>Node14&#45;&gt;Node23</title>
<path fill="none" stroke="midnightblue" d="M215.348,-885.861C219.977,-883.486 224.292,-880.572 228,-877 266.263,-840.134 225.952,-800.087 264,-763 267.928,-759.172 272.575,-756.105 277.556,-753.651"/>
<polygon fill="midnightblue" stroke="midnightblue" points="213.959,-882.648 206.137,-889.794 216.708,-889.086 213.959,-882.648"/>
</g>
<!-- Node24 -->
<g id="node24" class="node"><title>Node24</title>
<g id="a_node24"><a xlink:href="class_test_poly_control.html" target="_top" xlink:title="Control to test drawing polygons. ">
<polygon fill="white" stroke="black" points="287.5,-696.5 287.5,-715.5 374.5,-715.5 374.5,-696.5 287.5,-696.5"/>
<text text-anchor="middle" x="331" y="-703.5" font-family="Helvetica,sans-Serif" font-size="10.00">TestPolyControl</text>
</a>
</g>
</g>
<!-- Node14&#45;&gt;Node24 -->
<g id="edge23" class="edge"><title>Node14&#45;&gt;Node24</title>
<path fill="none" stroke="midnightblue" d="M215.427,-886.249C220.076,-883.798 224.373,-880.76 228,-877 276.195,-827.03 216.095,-775.248 264,-725 270.253,-718.441 278.61,-714.102 287.271,-711.243"/>
<polygon fill="midnightblue" stroke="midnightblue" points="213.921,-883.087 206.137,-890.275 216.704,-889.51 213.921,-883.087"/>
</g>
<!-- Node25 -->
<g id="node25" class="node"><title>Node25</title>
<g id="a_node25"><a xlink:href="class_test_text_orientation_control.html" target="_top" xlink:title="Control to test drawing text with orientation. ">
<polygon fill="white" stroke="black" points="264,-658.5 264,-677.5 398,-677.5 398,-658.5 264,-658.5"/>
<text text-anchor="middle" x="331" y="-665.5" font-family="Helvetica,sans-Serif" font-size="10.00">TestTextOrientationControl</text>
</a>
</g>
</g>
<!-- Node14&#45;&gt;Node25 -->
<g id="edge24" class="edge"><title>Node14&#45;&gt;Node25</title>
<path fill="none" stroke="midnightblue" d="M215.407,-886.527C220.097,-884.023 224.408,-880.897 228,-877 286.249,-813.802 206.118,-750.534 264,-687 267.533,-683.122 271.802,-680.015 276.448,-677.53"/>
<polygon fill="midnightblue" stroke="midnightblue" points="213.784,-883.416 206.009,-890.613 216.575,-889.835 213.784,-883.416"/>
</g>
<!-- Node26 -->
<g id="node26" class="node"><title>Node26</title>
<g id="a_node26"><a xlink:href="class_test_text_size_control.html" target="_top" xlink:title="Control to test drawing text with varying size. ">
<polygon fill="white" stroke="black" points="277.5,-620.5 277.5,-639.5 384.5,-639.5 384.5,-620.5 277.5,-620.5"/>
<text text-anchor="middle" x="331" y="-627.5" font-family="Helvetica,sans-Serif" font-size="10.00">TestTextSizeControl</text>
</a>
</g>
</g>
<!-- Node14&#45;&gt;Node26 -->
<g id="edge25" class="edge"><title>Node14&#45;&gt;Node26</title>
<path fill="none" stroke="midnightblue" d="M215.532,-886.64C220.198,-884.114 224.468,-880.952 228,-877 296.363,-800.509 196.081,-725.886 264,-649 267.71,-644.8 272.283,-641.502 277.276,-638.916"/>
<polygon fill="midnightblue" stroke="midnightblue" points="213.914,-883.529 206.166,-890.755 216.729,-889.938 213.914,-883.529"/>
</g>
</g>
</svg>
